<?xml version="1.0" encoding="UTF-8" standalone="no"?>
<!DOCTYPE svg PUBLIC "-//W3C//DTD SVG 1.1//EN" "http://www.w3.org/Graphics/SVG/1.1/DTD/svg11.dtd">
<!-- Generated by Microsoft Visio, SVG Export antiCSRFControlDiagram.svg Page-1 -->
<svg xmlns="http://www.w3.org/2000/svg" xmlns:xlink="http://www.w3.org/1999/xlink" xmlns:ev="http://www.w3.org/2001/xml-events"
		xmlns:v="http://schemas.microsoft.com/visio/2003/SVGExtensions/" width="21.5in" height="24.5in" viewBox="0 0 1548 1764"
		xml:space="preserve" color-interpolation-filters="sRGB" class="st20">
	<v:documentProperties v:langID="1033" v:viewMarkup="false">
		<v:userDefs>
			<v:ud v:nameU="msvSubprocessMaster" v:prompt="" v:val="VT4(Rectangle)"/>
			<v:ud v:nameU="msvNoAutoConnect" v:val="VT0(1):26"/>
		</v:userDefs>
	</v:documentProperties>

	<style type="text/css">
	<![CDATA[
		.st1 {marker-end:url(#mrkr5-6);stroke:#4672c4;stroke-linecap:round;stroke-linejoin:round;stroke-width:1}
		.st2 {fill:#4672c4;fill-opacity:1;stroke:#4672c4;stroke-opacity:1;stroke-width:0.28409090909091}
		.st3 {fill:#ffffff;stroke:none;stroke-linecap:butt;stroke-width:7.2}
		.st4 {fill:#3c63ac;font-family:Calibri;font-size:0.666664em}
		.st5 {fill:#4672c4;stroke:#c7c8c8;stroke-width:0.25}
		.st6 {fill:#1a2d51;font-family:Calibri;font-size:0.833336em}
		.st7 {fill:#4672c4;stroke:#c8c8c8;stroke-width:0.25}
		.st8 {fill:#feffff;font-family:Calibri;font-size:0.666664em}
		.st9 {font-size:1em}
		.st10 {marker-end:url(#mrkr4-27);stroke:#4672c4;stroke-linecap:round;stroke-linejoin:round;stroke-width:1}
		.st11 {fill:#ffffff;stroke:none;stroke-linecap:butt}
		.st12 {fill:#feffff;font-family:Calibri;font-size:0.416656em}
		.st13 {fill:#4672c4}
		.st14 {stroke:#c8c8c8;stroke-width:0.25}
		.st15 {fill:none;stroke:none;stroke-width:0.25}
		.st16 {fill:#4672c4;font-family:Calibri;font-size:1.00001em}
		.st17 {fill:#feffff;font-family:Calibri;font-size:0.499992em}
		.st18 {stroke:#4672c4;stroke-width:0.75}
		.st19 {fill:#4672c4;font-family:Calibri;font-size:0.833336em}
		.st20 {fill:none;fill-rule:evenodd;font-size:12px;overflow:visible;stroke-linecap:square;stroke-miterlimit:3}
	]]>
	</style>

	<defs id="Markers">
		<g id="lend5">
			<path d="M 2 1 L 0 0 L 1.98117 -0.993387 C 1.67173 -0.364515 1.67301 0.372641 1.98465 1.00043 " style="stroke:none"/>
		</g>
		<marker id="mrkr5-6" class="st2" v:arrowType="5" v:arrowSize="2" v:setback="6.16" refX="-6.16" orient="auto"
				markerUnits="strokeWidth" overflow="visible">
			<use xlink:href="#lend5" transform="scale(-3.52,-3.52) "/>
		</marker>
		<g id="lend4">
			<path d="M 2 1 L 0 0 L 2 -1 L 2 1 " style="stroke:none"/>
		</g>
		<marker id="mrkr4-27" class="st2" v:arrowType="4" v:arrowSize="2" v:setback="7.04" refX="-7.04" orient="auto"
				markerUnits="strokeWidth" overflow="visible">
			<use xlink:href="#lend4" transform="scale(-3.52,-3.52) "/>
		</marker>
	</defs>
	<g v:mID="0" v:index="1" v:groupContext="foregroundPage">
		<v:userDefs>
			<v:ud v:nameU="msvThemeOrder" v:val="VT0(0):26"/>
		</v:userDefs>
		<title>Page-1</title>
		<v:pageProperties v:drawingScale="1" v:pageScale="1" v:drawingUnits="0" v:shadowOffsetX="9" v:shadowOffsetY="-9"/>
		<v:layer v:name="Flowchart" v:index="0"/>
		<v:layer v:name="Connector" v:index="1"/>
		<v:layer v:name="Callout" v:index="2"/>
		<g id="shape2-1" v:mID="2" v:groupContext="shape" transform="translate(2538,668.25) rotate(90)">
			<title>Sheet.2</title>
			<desc>Request Path</desc>
			<v:textBlock v:margins="rect(4,4,4,4)"/>
			<v:textRect cx="46.125" cy="1764" width="92.26" height="0"/>
			<path d="M0 1764 L86.09 1764" class="st1"/>
			<rect v:rectContext="textBkgnd" x="24.5374" y="1759.2" width="43.1752" height="9.59985" class="st3"/>
			<text x="24.54" y="1766.4" class="st4" v:langID="1033"><v:paragraph v:horizAlign="1"/><v:tabList/>Request Path</text>		</g>
		<g id="group4-9" transform="translate(738,-1059.75)" v:mID="4" v:groupContext="group">
			<v:custProps>
				<v:cp v:nameU="ShapeClass" v:lbl="ShapeClass" v:prompt="" v:type="0" v:format="" v:sortKey="" v:invis="true"
						v:ask="false" v:langID="1033" v:cal="0" v:val="VT4(Location)"/>
				<v:cp v:nameU="ShapeType" v:lbl="ShapeType" v:prompt="" v:type="0" v:format="" v:sortKey="" v:invis="true"
						v:ask="false" v:langID="1033" v:cal="0" v:val="VT4(Cloud)"/>
			</v:custProps>
			<v:userDefs>
				<v:ud v:nameU="visVersion" v:prompt="" v:val="VT0(15):26"/>
				<v:ud v:nameU="ShapeClass" v:prompt="" v:val="VT0(5):26"/>
				<v:ud v:nameU="SolSH" v:prompt="" v:val="VT15({BF0433D9-CD73-4EB5-8390-8653BE590246}):41"/>
				<v:ud v:nameU="visLegendShape" v:prompt="" v:val="VT0(2):26"/>
			</v:userDefs>
			<title>Cloud</title>
			<desc>Internet</desc>
			<g id="shape5-10" v:mID="5" v:groupContext="shape" transform="translate(0,-15.3606)">
				<title>Sheet.5</title>
				<path d="M62.12 1733.97 C61.73 1730.56 58.64 1727.9 54.84 1727.9 C53.76 1727.9 52.74 1728.13 51.82 1728.51 C50.03
							 1725.17 46.33 1722.72 39.39 1722.92 C30.37 1723.18 19.69 1727.24 17.54 1734.44 C14.97 1734.93 13.31
							 1736.33 12.32 1738.18 C11.93 1738.14 11.52 1738.12 11.1 1738.12 C5.16 1738.12 0.6 1742.45 0.34 1747.79
							 C0 1754.7 5.16 1757.46 11.1 1757.46 C11.95 1757.46 12.77 1757.37 13.56 1757.2 C14.8 1758 16.41 1758.5
							 18.17 1758.5 C19.8 1758.5 21.31 1758.07 22.5 1757.37 C24.78 1761.26 29.49 1764 34.91 1763.68 C40.61
							 1763.35 44.04 1762.13 46.06 1760.25 C46.18 1760.24 46.3 1760.24 46.43 1760.23 C52.81 1759.41 55.61 1757.76
							 56.52 1755.03 C56.68 1755.04 56.86 1755.04 57.03 1755.04 C65.3 1755.04 72 1752.63 72 1744.16 C72 1739.46
							 67.87 1735.49 62.12 1733.97 Z" class="st5"/>
			</g>
			<g id="shape4-12" v:mID="4" v:groupContext="groupContent">
				<v:textBlock v:margins="rect(4,4,4,4)"/>
				<v:textRect cx="36" cy="1728" width="43.43" height="20.0036"/>
				<text x="19.42" y="1731" class="st6" v:langID="1033"><v:paragraph v:horizAlign="1"/><v:tabList/>Internet</text>			</g>
		</g>
		<g id="shape12-14" v:mID="12" v:groupContext="shape" v:layerMember="0" transform="translate(747,-949.5)">
			<title>Decision 2</title>
			<desc>Method?</desc>
			<v:custProps>
				<v:cp v:nameU="Cost" v:lbl="Cost" v:type="7" v:format="@" v:langID="1033"/>
				<v:cp v:nameU="Duration" v:lbl="Duration" v:type="2" v:langID="1033"/>
				<v:cp v:nameU="Resources" v:lbl="Resources" v:langID="1033"/>
			</v:custProps>
			<v:userDefs>
				<v:ud v:nameU="visVersion" v:val="VT0(15):26"/>
			</v:userDefs>
			<v:textBlock v:margins="rect(2,2,2,2)"/>
			<v:textRect cx="27" cy="1737" width="40.5" height="47.25"/>
			<path d="M0 1737 L27 1710 L54 1737 L27 1764 L0 1737 Z" class="st7"/>
			<text x="12.08" y="1739.4" class="st8" v:langID="1033"><v:paragraph v:horizAlign="1"/><v:tabList/>Method?</text>		</g>
		<g id="shape15-17" v:mID="15" v:groupContext="shape" v:layerMember="0" transform="translate(917.7,-837)">
			<title>Decision 2.15</title>
			<desc>Has antiCSRF Cookie?</desc>
			<v:custProps>
				<v:cp v:nameU="Cost" v:lbl="Cost" v:type="7" v:format="@" v:langID="1033"/>
				<v:cp v:nameU="Duration" v:lbl="Duration" v:type="2" v:langID="1033"/>
				<v:cp v:nameU="Resources" v:lbl="Resources" v:langID="1033"/>
			</v:custProps>
			<v:userDefs>
				<v:ud v:nameU="visVersion" v:val="VT0(15):26"/>
			</v:userDefs>
			<v:textBlock v:margins="rect(2,2,2,2)"/>
			<v:textRect cx="27" cy="1737" width="40.5" height="47.25"/>
			<path d="M0 1737 L27 1710 L54 1737 L27 1764 L0 1737 Z" class="st7"/>
			<text x="21.03" y="1729.8" class="st8" v:langID="1033"><v:paragraph v:horizAlign="1"/><v:tabList/>Has <tspan x="12.74"
						dy="1.2em" class="st9">antiCSRF </tspan><tspan x="14.07" dy="1.2em" class="st9">Cookie?</tspan></text>		</g>
		<g id="shape16-22" v:mID="16" v:groupContext="shape" v:layerMember="1" transform="translate(801,-976.5)">
			<title>Dynamic connector</title>
			<desc>GET</desc>
			<v:textBlock v:margins="rect(4,4,4,4)"/>
			<v:textRect cx="57.3" cy="1764" width="40" height="17.6036"/>
			<path d="M0 1764 L143.7 1764 L143.7 1842.46" class="st10"/>
			<rect v:rectContext="textBkgnd" x="50.8741" y="1759.2" width="12.8515" height="9.59985" class="st11"/>
			<text x="50.87" y="1766.4" class="st4" v:langID="1033"><v:paragraph v:horizAlign="1"/><v:tabList/>GET</text>		</g>
		<g id="shape17-30" v:mID="17" v:groupContext="shape" v:layerMember="0" transform="translate(630,-846)">
			<title>Decision 2.17</title>
			<desc>Has antiCSRF Cookie?</desc>
			<v:custProps>
				<v:cp v:nameU="Cost" v:lbl="Cost" v:type="7" v:format="@" v:langID="1033"/>
				<v:cp v:nameU="Duration" v:lbl="Duration" v:type="2" v:langID="1033"/>
				<v:cp v:nameU="Resources" v:lbl="Resources" v:langID="1033"/>
			</v:custProps>
			<v:userDefs>
				<v:ud v:nameU="visVersion" v:val="VT0(15):26"/>
			</v:userDefs>
			<v:textBlock v:margins="rect(2,2,2,2)"/>
			<v:textRect cx="27" cy="1737" width="40.5" height="47.25"/>
			<path d="M0 1737 L27 1710 L54 1737 L27 1764 L0 1737 Z" class="st7"/>
			<text x="21.03" y="1729.8" class="st8" v:langID="1033"><v:paragraph v:horizAlign="1"/><v:tabList/>Has <tspan x="12.74"
						dy="1.2em" class="st9">antiCSRF </tspan><tspan x="14.07" dy="1.2em" class="st9">Cookie?</tspan></text>		</g>
		<g id="shape18-35" v:mID="18" v:groupContext="shape" v:layerMember="1" transform="translate(747,-976.5)">
			<title>Dynamic connector.18</title>
			<desc>POST</desc>
			<v:textBlock v:margins="rect(4,4,4,4)"/>
			<v:textRect cx="-47.25" cy="1764" width="40" height="17.6036"/>
			<path d="M0 1764 L-90 1764 L-90 1833.46" class="st10"/>
			<rect v:rectContext="textBkgnd" x="-55.752" y="1759.2" width="17.0038" height="9.59985" class="st3"/>
			<text x="-55.75" y="1766.4" class="st4" v:langID="1033"><v:paragraph v:horizAlign="1"/><v:tabList/>POST</text>		</g>
		<g id="shape20-42" v:mID="20" v:groupContext="shape" v:layerMember="0" transform="translate(994.2,-780.75)">
			<title>Decision 2.20</title>
			<desc>Cookie Validation</desc>
			<v:custProps>
				<v:cp v:nameU="Cost" v:lbl="Cost" v:type="7" v:format="@" v:langID="1033"/>
				<v:cp v:nameU="Duration" v:lbl="Duration" v:type="2" v:langID="1033"/>
				<v:cp v:nameU="Resources" v:lbl="Resources" v:langID="1033"/>
			</v:custProps>
			<v:userDefs>
				<v:ud v:nameU="visVersion" v:val="VT0(15):26"/>
			</v:userDefs>
			<v:textBlock v:margins="rect(2,2,2,2)"/>
			<v:textRect cx="27" cy="1737" width="40.5" height="47.25"/>
			<path d="M0 1737 L27 1710 L54 1737 L27 1764 L0 1737 Z" class="st7"/>
			<text x="15.92" y="1734.6" class="st8" v:langID="1033"><v:paragraph v:horizAlign="1"/><v:tabList/>Cookie<v:newlineChar/><tspan
						x="10.49" dy="1.2em" class="st9">Validation</tspan></text>		</g>
		<g id="shape21-46" v:mID="21" v:groupContext="shape" v:layerMember="1" transform="translate(971.7,-864)">
			<title>Dynamic connector.21</title>
			<desc>Yes</desc>
			<v:textBlock v:margins="rect(4,4,4,4)"/>
			<v:textRect cx="22.9687" cy="1764" width="40" height="17.6036"/>
			<path d="M0 1764 L49.5 1764 L49.5 1786.21" class="st10"/>
			<rect v:rectContext="textBkgnd" x="17.4649" y="1759.2" width="11.0078" height="9.59985" class="st3"/>
			<text x="17.46" y="1766.4" class="st4" v:langID="1033"><v:paragraph v:horizAlign="1"/><v:tabList/>Yes</text>		</g>
		<g id="shape22-53" v:mID="22" v:groupContext="shape" v:layerMember="1" transform="translate(917.7,-864)">
			<title>Dynamic connector.22</title>
			<desc>No</desc>
			<v:textBlock v:margins="rect(4,4,4,4)"/>
			<v:textRect cx="-24.2561" cy="1764" width="40" height="17.6036"/>
			<path d="M0 1764 L-58.5 1764 L-58.5 1774.96" class="st10"/>
			<rect v:rectContext="textBkgnd" x="-28.9475" y="1759.2" width="9.38287" height="9.59985" class="st3"/>
			<text x="-28.95" y="1766.4" class="st4" v:langID="1033"><v:paragraph v:horizAlign="1"/><v:tabList/>No</text>		</g>
		<g id="shape26-60" v:mID="26" v:groupContext="shape" v:layerMember="0" transform="translate(513,-859.5)">
			<title>Terminator.26</title>
			<desc>Reject Request</desc>
			<v:custProps>
				<v:cp v:nameU="Cost" v:lbl="Cost" v:type="7" v:format="@" v:langID="1033"/>
				<v:cp v:nameU="Duration" v:lbl="Duration" v:type="2" v:langID="1033"/>
				<v:cp v:nameU="Resources" v:lbl="Resources" v:langID="1033"/>
			</v:custProps>
			<v:userDefs>
				<v:ud v:nameU="visVersion" v:val="VT0(15):26"/>
			</v:userDefs>
			<v:textBlock v:margins="rect(2,2,2,2)"/>
			<v:textRect cx="36" cy="1750.5" width="72" height="27"/>
			<path d="M13.5 1764 L58.5 1764 A13.5 13.5 -180 0 0 58.5 1737 L13.5 1737 A13.5 13.5 -180 1 0 13.5 1764 Z" class="st7"/>
			<text x="11.7" y="1752.9" class="st8" v:langID="1033"><v:paragraph v:horizAlign="1"/><v:tabList/>Reject Request</text>		</g>
		<g id="shape27-63" v:mID="27" v:groupContext="shape" v:layerMember="1" transform="translate(630,-882)">
			<title>Dynamic connector.27</title>
			<desc>No</desc>
			<v:textBlock v:margins="rect(4,4,4,4)"/>
			<v:textRect cx="-19.5652" cy="1773" width="40" height="17.6036"/>
			<path d="M0 1773 L-37.96 1773" class="st10"/>
			<rect v:rectContext="textBkgnd" x="-24.2566" y="1768.2" width="9.38287" height="9.59985" class="st3"/>
			<text x="-24.26" y="1775.4" class="st4" v:langID="1033"><v:paragraph v:horizAlign="1"/><v:tabList/>No</text>		</g>
		<g id="shape28-70" v:mID="28" v:groupContext="shape" v:layerMember="0" transform="translate(630,-751.5)">
			<title>Decision 2.28</title>
			<desc>Cookie Validation</desc>
			<v:custProps>
				<v:cp v:nameU="Cost" v:lbl="Cost" v:type="7" v:format="@" v:langID="1033"/>
				<v:cp v:nameU="Duration" v:lbl="Duration" v:type="2" v:langID="1033"/>
				<v:cp v:nameU="Resources" v:lbl="Resources" v:langID="1033"/>
			</v:custProps>
			<v:userDefs>
				<v:ud v:nameU="visVersion" v:val="VT0(15):26"/>
			</v:userDefs>
			<v:textBlock v:margins="rect(2,2,2,2)"/>
			<v:textRect cx="27" cy="1737" width="40.5" height="47.25"/>
			<path d="M0 1737 L27 1710 L54 1737 L27 1764 L0 1737 Z" class="st7"/>
			<text x="15.92" y="1734.6" class="st8" v:langID="1033"><v:paragraph v:horizAlign="1"/><v:tabList/>Cookie<v:newlineChar/><tspan
						x="10.49" dy="1.2em" class="st9">Validation</tspan></text>		</g>
		<g id="shape29-74" v:mID="29" v:groupContext="shape" v:layerMember="1" transform="translate(648,-846)">
			<title>Dynamic connector.29</title>
			<desc>Yes</desc>
			<v:textBlock v:margins="rect(4,4,4,4)"/>
			<v:textRect cx="9" cy="1782" width="40" height="17.6036"/>
			<path d="M9 1764 L9 1797.46" class="st10"/>
			<rect v:rectContext="textBkgnd" x="3.49618" y="1777.2" width="11.0078" height="9.59985" class="st3"/>
			<text x="3.5" y="1784.4" class="st4" v:langID="1033"><v:paragraph v:horizAlign="1"/><v:tabList/>Yes</text>		</g>
		<g id="shape30-81" v:mID="30" v:groupContext="shape" v:layerMember="0" transform="translate(630,-648)">
			<title>Decision 2.30</title>
			<desc>Is form Submit?</desc>
			<v:custProps>
				<v:cp v:nameU="Cost" v:lbl="Cost" v:type="7" v:format="@" v:langID="1033"/>
				<v:cp v:nameU="Duration" v:lbl="Duration" v:type="2" v:langID="1033"/>
				<v:cp v:nameU="Resources" v:lbl="Resources" v:langID="1033"/>
			</v:custProps>
			<v:userDefs>
				<v:ud v:nameU="visVersion" v:val="VT0(15):26"/>
			</v:userDefs>
			<v:textBlock v:margins="rect(2,2,2,2)"/>
			<v:textRect cx="27" cy="1737" width="40.5" height="47.25"/>
			<path d="M0 1737 L27 1710 L54 1737 L27 1764 L0 1737 Z" class="st7"/>
			<text x="15.6" y="1734.6" class="st8" v:langID="1033"><v:paragraph v:horizAlign="1"/><v:tabList/>Is form <tspan
						x="13.65" dy="1.2em" class="st9">Submit?</tspan></text>		</g>
		<g id="shape31-85" v:mID="31" v:groupContext="shape" v:layerMember="1" transform="translate(666,-751.5)">
			<title>Dynamic connector.31</title>
			<desc>Yes</desc>
			<v:textBlock v:margins="rect(4,4,4,4)"/>
			<v:textRect cx="-9.00001" cy="1784.62" width="40" height="17.6036"/>
			<path d="M-9 1764 L-9 1806.46" class="st10"/>
			<rect v:rectContext="textBkgnd" x="-14.5038" y="1779.83" width="11.0078" height="9.59985" class="st3"/>
			<text x="-14.5" y="1787.03" class="st4" v:langID="1033"><v:paragraph v:horizAlign="1"/><v:tabList/>Yes</text>		</g>
		<g id="shape32-92" v:mID="32" v:groupContext="shape" v:layerMember="1" transform="translate(630,-769.5)">
			<title>Dynamic connector.32</title>
			<desc>No</desc>
			<v:textBlock v:margins="rect(4,4,4,4)"/>
			<v:textRect cx="-22.5" cy="1755" width="40" height="17.6036"/>
			<path d="M0 1755 L-37.96 1755" class="st10"/>
			<rect v:rectContext="textBkgnd" x="-27.1914" y="1750.2" width="9.38287" height="9.59985" class="st3"/>
			<text x="-27.19" y="1757.4" class="st4" v:langID="1033"><v:paragraph v:horizAlign="1"/><v:tabList/>No</text>		</g>
		<g id="shape33-99" v:mID="33" v:groupContext="shape" v:layerMember="1" transform="translate(648,-648)">
			<title>Dynamic connector.33</title>
			<desc>Yes</desc>
			<v:textBlock v:margins="rect(4,4,4,4)"/>
			<v:textRect cx="9" cy="1782" width="40" height="17.6036"/>
			<path d="M9 1764 L9 1801.96" class="st10"/>
			<rect v:rectContext="textBkgnd" x="3.49618" y="1777.2" width="11.0078" height="9.59985" class="st11"/>
			<text x="3.5" y="1784.4" class="st4" v:langID="1033"><v:paragraph v:horizAlign="1"/><v:tabList/>Yes</text>		</g>
		<g id="shape35-106" v:mID="35" v:groupContext="shape" v:layerMember="1" transform="translate(630,-666)">
			<title>Dynamic connector.35</title>
			<desc>No</desc>
			<v:textBlock v:margins="rect(4,4,4,4)"/>
			<v:textRect cx="-21.0938" cy="1755" width="40" height="17.6036"/>
			<path d="M0 1755 L-37.96 1755" class="st10"/>
			<rect v:rectContext="textBkgnd" x="-25.7851" y="1750.2" width="9.38287" height="9.59985" class="st3"/>
			<text x="-25.79" y="1757.4" class="st4" v:langID="1033"><v:paragraph v:horizAlign="1"/><v:tabList/>No</text>		</g>
		<g id="shape36-113" v:mID="36" v:groupContext="shape" v:layerMember="0" transform="translate(513,-661.5)">
			<title>Terminator.36</title>
			<desc>Accept Request</desc>
			<v:custProps>
				<v:cp v:nameU="Cost" v:lbl="Cost" v:type="7" v:format="@" v:langID="1033"/>
				<v:cp v:nameU="Duration" v:lbl="Duration" v:type="2" v:langID="1033"/>
				<v:cp v:nameU="Resources" v:lbl="Resources" v:langID="1033"/>
			</v:custProps>
			<v:userDefs>
				<v:ud v:nameU="visVersion" v:val="VT0(15):26"/>
			</v:userDefs>
			<v:textBlock v:margins="rect(2,2,2,2)"/>
			<v:textRect cx="36" cy="1750.5" width="72" height="27"/>
			<path d="M13.5 1764 L58.5 1764 A13.5 13.5 -180 0 0 58.5 1737 L13.5 1737 A13.5 13.5 -180 1 0 13.5 1764 Z" class="st7"/>
			<text x="10.71" y="1752.9" class="st8" v:langID="1033"><v:paragraph v:horizAlign="1"/><v:tabList/>Accept Request</text>		</g>
		<g id="shape37-116" v:mID="37" v:groupContext="shape" v:layerMember="0" transform="translate(630,-549)">
			<title>Decision 2.37</title>
			<desc>Has antiCSRF Token embedded in hidden field</desc>
			<v:custProps>
				<v:cp v:nameU="Cost" v:lbl="Cost" v:type="7" v:format="@" v:langID="1033"/>
				<v:cp v:nameU="Duration" v:lbl="Duration" v:type="2" v:langID="1033"/>
				<v:cp v:nameU="Resources" v:lbl="Resources" v:langID="1033"/>
			</v:custProps>
			<v:userDefs>
				<v:ud v:nameU="visVersion" v:val="VT0(15):26"/>
			</v:userDefs>
			<v:textBlock v:margins="rect(2,2,2,2)"/>
			<v:textRect cx="27" cy="1737" width="40.5" height="47.25"/>
			<path d="M0 1737 L27 1710 L54 1737 L27 1764 L0 1737 Z" class="st7"/>
			<text x="13.79" y="1732.5" class="st12" v:langID="1033"><v:paragraph v:horizAlign="1"/><v:tabList/>Has antiCSRF <tspan
						x="9.22" dy="1.2em" class="st9">Token embedded </tspan><tspan x="12.44" dy="1.2em" class="st9">in hidden field</tspan></text>		</g>
		<g id="shape39-121" v:mID="39" v:groupContext="shape" v:layerMember="1" transform="translate(666,-549)">
			<title>Dynamic connector.39</title>
			<desc>Yes</desc>
			<v:textBlock v:margins="rect(4,4,4,4)"/>
			<v:textRect cx="-9" cy="1787.1" width="40" height="17.6036"/>
			<path d="M-9 1764 L-9 1806.46" class="st10"/>
			<rect v:rectContext="textBkgnd" x="-14.5038" y="1782.3" width="11.0078" height="9.59985" class="st3"/>
			<text x="-14.5" y="1789.5" class="st4" v:langID="1033"><v:paragraph v:horizAlign="1"/><v:tabList/>Yes</text>		</g>
		<g id="shape40-128" v:mID="40" v:groupContext="shape" v:layerMember="0" transform="translate(630,-445.5)">
			<title>Decision 2.40</title>
			<desc>Are the Token and Cookie Values the same?</desc>
			<v:custProps>
				<v:cp v:nameU="Cost" v:lbl="Cost" v:type="7" v:format="@" v:langID="1033"/>
				<v:cp v:nameU="Duration" v:lbl="Duration" v:type="2" v:langID="1033"/>
				<v:cp v:nameU="Resources" v:lbl="Resources" v:langID="1033"/>
			</v:custProps>
			<v:userDefs>
				<v:ud v:nameU="visVersion" v:val="VT0(15):26"/>
			</v:userDefs>
			<v:textBlock v:margins="rect(2,2,2,2)"/>
			<v:textRect cx="27" cy="1737" width="40.5" height="47.25"/>
			<path d="M0 1737 L27 1710 L54 1737 L27 1764 L0 1737 Z" class="st7"/>
			<text x="12.68" y="1732.5" class="st12" v:langID="1033"><v:paragraph v:horizAlign="1"/><v:tabList/>Are the Token <tspan
						x="15.69" dy="1.2em" class="st9">and Cookie </tspan><tspan x="9.18" dy="1.2em" class="st9">Values the same?</tspan></text>		</g>
		<g id="shape41-133" v:mID="41" v:groupContext="shape" v:layerMember="1" transform="translate(648,-445.5)">
			<title>Dynamic connector.41</title>
			<desc>Yes</desc>
			<v:textBlock v:margins="rect(4,4,4,4)"/>
			<v:textRect cx="9" cy="1788.75" width="40" height="17.6036"/>
			<path d="M9 1764 L9 1806.46" class="st10"/>
			<rect v:rectContext="textBkgnd" x="3.49619" y="1783.95" width="11.0078" height="9.59985" class="st3"/>
			<text x="3.5" y="1791.15" class="st4" v:langID="1033"><v:paragraph v:horizAlign="1"/><v:tabList/>Yes</text>		</g>
		<g id="shape42-140" v:mID="42" v:groupContext="shape" v:layerMember="0" transform="translate(621,-369)">
			<title>Terminator.42</title>
			<desc>Accept Request</desc>
			<v:custProps>
				<v:cp v:nameU="Cost" v:lbl="Cost" v:type="7" v:format="@" v:langID="1033"/>
				<v:cp v:nameU="Duration" v:lbl="Duration" v:type="2" v:langID="1033"/>
				<v:cp v:nameU="Resources" v:lbl="Resources" v:langID="1033"/>
			</v:custProps>
			<v:userDefs>
				<v:ud v:nameU="visVersion" v:val="VT0(15):26"/>
			</v:userDefs>
			<v:textBlock v:margins="rect(2,2,2,2)"/>
			<v:textRect cx="36" cy="1750.5" width="72" height="27"/>
			<path d="M13.5 1764 L58.5 1764 A13.5 13.5 -180 0 0 58.5 1737 L13.5 1737 A13.5 13.5 -180 1 0 13.5 1764 Z" class="st7"/>
			<text x="10.71" y="1752.9" class="st8" v:langID="1033"><v:paragraph v:horizAlign="1"/><v:tabList/>Accept Request</text>		</g>
		<g id="shape43-143" v:mID="43" v:groupContext="shape" v:layerMember="1" transform="translate(630,-463.5)">
			<title>Dynamic connector.43</title>
			<desc>No</desc>
			<v:textBlock v:margins="rect(4,4,4,4)"/>
			<v:textRect cx="-20.25" cy="1755" width="40" height="17.6036"/>
			<path d="M0 1755 L-37.96 1755" class="st10"/>
			<rect v:rectContext="textBkgnd" x="-24.9414" y="1750.2" width="9.38287" height="9.59985" class="st3"/>
			<text x="-24.94" y="1757.4" class="st4" v:langID="1033"><v:paragraph v:horizAlign="1"/><v:tabList/>No</text>		</g>
		<g id="shape44-150" v:mID="44" v:groupContext="shape" v:layerMember="0" transform="translate(513,-459)">
			<title>Terminator.44</title>
			<desc>Reject Request</desc>
			<v:custProps>
				<v:cp v:nameU="Cost" v:lbl="Cost" v:type="7" v:format="@" v:langID="1033"/>
				<v:cp v:nameU="Duration" v:lbl="Duration" v:type="2" v:langID="1033"/>
				<v:cp v:nameU="Resources" v:lbl="Resources" v:langID="1033"/>
			</v:custProps>
			<v:userDefs>
				<v:ud v:nameU="visVersion" v:val="VT0(15):26"/>
			</v:userDefs>
			<v:textBlock v:margins="rect(2,2,2,2)"/>
			<v:textRect cx="36" cy="1750.5" width="72" height="27"/>
			<path d="M13.5 1764 L58.5 1764 A13.5 13.5 -180 0 0 58.5 1737 L13.5 1737 A13.5 13.5 -180 1 0 13.5 1764 Z" class="st7"/>
			<text x="11.7" y="1752.9" class="st8" v:langID="1033"><v:paragraph v:horizAlign="1"/><v:tabList/>Reject Request</text>		</g>
		<g id="shape45-153" v:mID="45" v:groupContext="shape" v:layerMember="0" transform="translate(513,-765)">
			<title>Terminator.45</title>
			<desc>Reject Request</desc>
			<v:custProps>
				<v:cp v:nameU="Cost" v:lbl="Cost" v:type="7" v:format="@" v:langID="1033"/>
				<v:cp v:nameU="Duration" v:lbl="Duration" v:type="2" v:langID="1033"/>
				<v:cp v:nameU="Resources" v:lbl="Resources" v:langID="1033"/>
			</v:custProps>
			<v:userDefs>
				<v:ud v:nameU="visVersion" v:val="VT0(15):26"/>
			</v:userDefs>
			<v:textBlock v:margins="rect(2,2,2,2)"/>
			<v:textRect cx="36" cy="1750.5" width="72" height="27"/>
			<path d="M13.5 1764 L58.5 1764 A13.5 13.5 -180 0 0 58.5 1737 L13.5 1737 A13.5 13.5 -180 1 0 13.5 1764 Z" class="st7"/>
			<text x="11.7" y="1752.9" class="st8" v:langID="1033"><v:paragraph v:horizAlign="1"/><v:tabList/>Reject Request</text>		</g>
		<g id="shape49-156" v:mID="49" v:groupContext="shape" v:layerMember="0" transform="translate(823.2,-633.938)">
			<title>Terminator.49</title>
			<desc>Accept Request</desc>
			<v:custProps>
				<v:cp v:nameU="Cost" v:lbl="Cost" v:type="7" v:format="@" v:langID="1033"/>
				<v:cp v:nameU="Duration" v:lbl="Duration" v:type="2" v:langID="1033"/>
				<v:cp v:nameU="Resources" v:lbl="Resources" v:langID="1033"/>
			</v:custProps>
			<v:userDefs>
				<v:ud v:nameU="visVersion" v:val="VT0(15):26"/>
			</v:userDefs>
			<v:textBlock v:margins="rect(2,2,2,2)"/>
			<v:textRect cx="36" cy="1750.5" width="72" height="27"/>
			<path d="M13.5 1764 L58.5 1764 A13.5 13.5 -180 0 0 58.5 1737 L13.5 1737 A13.5 13.5 -180 1 0 13.5 1764 Z" class="st7"/>
			<text x="10.71" y="1752.9" class="st8" v:langID="1033"><v:paragraph v:horizAlign="1"/><v:tabList/>Accept Request</text>		</g>
		<g id="shape50-159" v:mID="50" v:groupContext="shape" v:layerMember="0" transform="translate(823.2,-698.062)">
			<title>Procedure</title>
			<desc>-Create Cookie -Update DB -Add cookie to response</desc>
			<v:custProps>
				<v:cp v:nameU="Cost" v:lbl="Cost" v:type="7" v:format="@" v:langID="1033"/>
				<v:cp v:nameU="Duration" v:lbl="Duration" v:type="2" v:langID="1033"/>
				<v:cp v:nameU="Resources" v:lbl="Resources" v:langID="1033"/>
			</v:custProps>
			<v:userDefs>
				<v:ud v:nameU="AntiScale" v:val="VT0(1):26"/>
				<v:ud v:nameU="visVersion" v:val="VT0(15):26"/>
				<v:ud v:nameU="Scale" v:val="VT0(1):26"/>
			</v:userDefs>
			<v:textBlock v:margins="rect(2,2,2,2)"/>
			<v:textRect cx="36" cy="1737" width="54" height="54"/>
			<path d="M0 1764 L72 1764 L72 1710 L0 1710 L0 1764 Z" class="st13"/>
			<path d="M0 1764 L72 1764 L72 1710 L0 1710 L0 1764" class="st14"/>
			<path d="M9 1764 L9 1710" class="st14"/>
			<path d="M63 1764 L63 1710" class="st14"/>
			<text x="11" y="1725" class="st8" v:langID="1033"><v:paragraph/><v:tabList/>-Create Cookie<v:newlineChar/><tspan x="11"
						dy="1.2em" class="st9">-</tspan>Update DB<v:newlineChar/><tspan x="11" dy="1.2em" class="st9">-</tspan>Add cookie to <tspan
						x="11" dy="1.2em" class="st9">response</tspan></text>		</g>
		<g id="shape51-168" v:mID="51" v:groupContext="shape" v:layerMember="1" transform="translate(850.2,-698.062)">
			<title>Dynamic connector.51</title>
			<path d="M9 1764 L9 1794.08" class="st10"/>
		</g>
		<g id="shape53-173" v:mID="53" v:groupContext="shape" v:layerMember="1" transform="translate(630,-585)">
			<title>Dynamic connector.53</title>
			<desc>No</desc>
			<v:textBlock v:margins="rect(4,4,4,4)"/>
			<v:textRect cx="-17.28" cy="1773" width="40" height="17.6036"/>
			<path d="M0 1773 L-36.16 1773" class="st10"/>
			<rect v:rectContext="textBkgnd" x="-21.9714" y="1768.2" width="9.38287" height="9.59985" class="st3"/>
			<text x="-21.97" y="1775.4" class="st4" v:langID="1033"><v:paragraph v:horizAlign="1"/><v:tabList/>No</text>		</g>
		<g id="shape54-180" v:mID="54" v:groupContext="shape" v:layerMember="0" transform="translate(514.8,-562.5)">
			<title>Terminator.54</title>
			<desc>Reject Request</desc>
			<v:custProps>
				<v:cp v:nameU="Cost" v:lbl="Cost" v:type="7" v:format="@" v:langID="1033"/>
				<v:cp v:nameU="Duration" v:lbl="Duration" v:type="2" v:langID="1033"/>
				<v:cp v:nameU="Resources" v:lbl="Resources" v:langID="1033"/>
			</v:custProps>
			<v:userDefs>
				<v:ud v:nameU="visVersion" v:val="VT0(15):26"/>
			</v:userDefs>
			<v:textBlock v:margins="rect(2,2,2,2)"/>
			<v:textRect cx="36" cy="1750.5" width="72" height="27"/>
			<path d="M13.5 1764 L58.5 1764 A13.5 13.5 -180 0 0 58.5 1737 L13.5 1737 A13.5 13.5 -180 1 0 13.5 1764 Z" class="st7"/>
			<text x="11.7" y="1752.9" class="st8" v:langID="1033"><v:paragraph v:horizAlign="1"/><v:tabList/>Reject Request</text>		</g>
		<g id="shape63-183" v:mID="63" v:groupContext="shape" v:layerMember="1" transform="translate(1048.2,-798.75)">
			<title>Dynamic connector.63</title>
			<desc>No</desc>
			<v:textBlock v:margins="rect(4,4,4,4)"/>
			<v:textRect cx="29.4" cy="1755" width="40" height="17.6036"/>
			<path d="M0 1755 L51.76 1755" class="st10"/>
			<rect v:rectContext="textBkgnd" x="24.7086" y="1750.2" width="9.38287" height="9.59985" class="st3"/>
			<text x="24.71" y="1757.4" class="st4" v:langID="1033"><v:paragraph v:horizAlign="1"/><v:tabList/>No</text>		</g>
		<g id="shape64-190" v:mID="64" v:groupContext="shape" v:layerMember="0" transform="translate(1107,-794.25)">
			<title>Terminator.64</title>
			<desc>Reject Request</desc>
			<v:custProps>
				<v:cp v:nameU="Cost" v:lbl="Cost" v:type="7" v:format="@" v:langID="1033"/>
				<v:cp v:nameU="Duration" v:lbl="Duration" v:type="2" v:langID="1033"/>
				<v:cp v:nameU="Resources" v:lbl="Resources" v:langID="1033"/>
			</v:custProps>
			<v:userDefs>
				<v:ud v:nameU="visVersion" v:val="VT0(15):26"/>
			</v:userDefs>
			<v:textBlock v:margins="rect(2,2,2,2)"/>
			<v:textRect cx="36" cy="1750.5" width="72" height="27"/>
			<path d="M13.5 1764 L58.5 1764 A13.5 13.5 -180 0 0 58.5 1737 L13.5 1737 A13.5 13.5 -180 1 0 13.5 1764 Z" class="st7"/>
			<text x="11.7" y="1752.9" class="st8" v:langID="1033"><v:paragraph v:horizAlign="1"/><v:tabList/>Reject Request</text>		</g>
		<g id="shape66-193" v:mID="66" v:groupContext="shape" v:layerMember="1" transform="translate(1012.2,-780.75)">
			<title>Dynamic connector.66</title>
			<desc>Yes</desc>
			<v:textBlock v:margins="rect(4,4,4,4)"/>
			<v:textRect cx="9" cy="1780.88" width="40" height="17.6036"/>
			<path d="M9 1764 L9 1790.71" class="st10"/>
			<rect v:rectContext="textBkgnd" x="3.49619" y="1776.08" width="11.0078" height="9.59985" class="st11"/>
			<text x="3.5" y="1783.28" class="st4" v:langID="1033"><v:paragraph v:horizAlign="1"/><v:tabList/>Yes</text>		</g>
		<g id="shape67-200" v:mID="67" v:groupContext="shape" v:layerMember="0" transform="translate(985.2,-720)">
			<title>Terminator.67</title>
			<desc>Accept Request</desc>
			<v:custProps>
				<v:cp v:nameU="Cost" v:lbl="Cost" v:type="7" v:format="@" v:langID="1033"/>
				<v:cp v:nameU="Duration" v:lbl="Duration" v:type="2" v:langID="1033"/>
				<v:cp v:nameU="Resources" v:lbl="Resources" v:langID="1033"/>
			</v:custProps>
			<v:userDefs>
				<v:ud v:nameU="visVersion" v:val="VT0(15):26"/>
			</v:userDefs>
			<v:textBlock v:margins="rect(2,2,2,2)"/>
			<v:textRect cx="36" cy="1750.5" width="72" height="27"/>
			<path d="M13.5 1764 L58.5 1764 A13.5 13.5 -180 0 0 58.5 1737 L13.5 1737 A13.5 13.5 -180 1 0 13.5 1764 Z" class="st7"/>
			<text x="10.71" y="1752.9" class="st8" v:langID="1033"><v:paragraph v:horizAlign="1"/><v:tabList/>Accept Request</text>		</g>
		<g id="shape68-203" v:mID="68" v:groupContext="shape" transform="translate(468,-956.25)">
			<title>Sheet.68</title>
			<desc>Note: a POST request will be rejected if it does not have CSR...</desc>
			<v:textBlock v:margins="rect(4,4,4,4)"/>
			<v:textRect cx="85.5" cy="1743.75" width="171.01" height="40.5"/>
			<rect x="0" y="1723.5" width="171" height="40.5" class="st15"/>
			<text x="16.17" y="1704.15" class="st16" v:langID="1033"><v:paragraph v:horizAlign="1"/><v:tabList/>Note: a POST request will be <tspan
						x="6.92" dy="1.2em" class="st9">rejected if it does not have CSRF </tspan><tspan x="9.88" dy="1.2em"
						class="st9">Information, regardless of type </tspan><tspan x="18.25" dy="1.2em" class="st9">of resource being posted to </tspan><tspan
						x="4.96" dy="1.2em" class="st9">(public or secured). The only way </tspan><tspan x="9.88" dy="1.2em"
						class="st9">to obtain that information is to </tspan><tspan x="30.06" dy="1.2em" class="st9">process a GET request.</tspan></text>		</g>
		<g id="shape69-212" v:mID="69" v:groupContext="shape" v:layerMember="0" transform="translate(832.2,-792)">
			<title>Decision 2.69</title>
			<desc>Is Requesting Secured Resource?</desc>
			<v:custProps>
				<v:cp v:nameU="Cost" v:lbl="Cost" v:type="7" v:format="@" v:langID="1033"/>
				<v:cp v:nameU="Duration" v:lbl="Duration" v:type="2" v:langID="1033"/>
				<v:cp v:nameU="Resources" v:lbl="Resources" v:langID="1033"/>
			</v:custProps>
			<v:userDefs>
				<v:ud v:nameU="visVersion" v:val="VT0(15):26"/>
			</v:userDefs>
			<v:textBlock v:margins="rect(2,2,2,2)"/>
			<v:textRect cx="27" cy="1737" width="40.5" height="47.25"/>
			<path d="M0 1737 L27 1710 L54 1737 L27 1764 L0 1737 Z" class="st7"/>
			<text x="10.77" y="1731.6" class="st17" v:langID="1033"><v:paragraph v:horizAlign="1"/><v:tabList/>Is Requesting <tspan
						x="17.17" dy="1.2em" class="st9">Secured </tspan><tspan x="14.35" dy="1.2em" class="st9">Resource?</tspan></text>		</g>
		<g id="shape70-217" v:mID="70" v:groupContext="shape" v:layerMember="1" transform="translate(850.2,-792)">
			<title>Dynamic connector.70</title>
			<desc>No</desc>
			<v:textBlock v:margins="rect(4,4,4,4)"/>
			<v:textRect cx="9" cy="1783.97" width="40" height="17.6036"/>
			<path d="M9 1764 L9 1796.9" class="st10"/>
			<rect v:rectContext="textBkgnd" x="4.30862" y="1779.17" width="9.38287" height="9.59985" class="st3"/>
			<text x="4.31" y="1786.37" class="st4" v:langID="1033"><v:paragraph v:horizAlign="1"/><v:tabList/>No</text>		</g>
		<g id="shape72-224" v:mID="72" v:groupContext="shape" v:layerMember="1" transform="translate(832.2,-810)">
			<title>Dynamic connector.72</title>
			<desc>Yes</desc>
			<v:textBlock v:margins="rect(4,4,4,4)"/>
			<v:textRect cx="-16.9125" cy="1755" width="40" height="17.6036"/>
			<path d="M0 1755 L-42.16 1755" class="st10"/>
			<rect v:rectContext="textBkgnd" x="-22.4163" y="1750.2" width="11.0078" height="9.59985" class="st11"/>
			<text x="-22.42" y="1757.4" class="st4" v:langID="1033"><v:paragraph v:horizAlign="1"/><v:tabList/>Yes</text>		</g>
		<g id="shape73-231" v:mID="73" v:groupContext="shape" v:layerMember="0" transform="translate(711,-805.5)">
			<title>Terminator.73</title>
			<desc>Reject Request</desc>
			<v:custProps>
				<v:cp v:nameU="Cost" v:lbl="Cost" v:type="7" v:format="@" v:langID="1033"/>
				<v:cp v:nameU="Duration" v:lbl="Duration" v:type="2" v:langID="1033"/>
				<v:cp v:nameU="Resources" v:lbl="Resources" v:langID="1033"/>
			</v:custProps>
			<v:userDefs>
				<v:ud v:nameU="visVersion" v:val="VT0(15):26"/>
			</v:userDefs>
			<v:textBlock v:margins="rect(2,2,2,2)"/>
			<v:textRect cx="36" cy="1750.5" width="72" height="27"/>
			<path d="M13.5 1764 L58.5 1764 A13.5 13.5 -180 0 0 58.5 1737 L13.5 1737 A13.5 13.5 -180 1 0 13.5 1764 Z" class="st7"/>
			<text x="11.7" y="1752.9" class="st8" v:langID="1033"><v:paragraph v:horizAlign="1"/><v:tabList/>Reject Request</text>		</g>
		<g id="shape74-234" v:mID="74" v:groupContext="shape" transform="translate(963,-949.5)">
			<title>Sheet.74</title>
			<desc>There is essential logic that uses the isRequestingSecuredRes...</desc>
			<v:textBlock v:margins="rect(4,4,4,4)"/>
			<v:textRect cx="85.5" cy="1737" width="171" height="54"/>
			<rect x="0" y="1710" width="171" height="54" class="st15"/>
			<text x="7.24" y="1704.6" class="st16" v:langID="1033"><v:paragraph v:horizAlign="1"/><v:tabList/>There is essential logic that uses <tspan
						x="4.94" dy="1.2em" class="st9">the isRequestingSecuredResouce </tspan><tspan x="12.34" dy="1.2em"
						class="st9">flag to handle pre</tspan>-session and <tspan x="8.29" dy="1.2em" class="st9">session cookie mitigation which </tspan><tspan
						x="10.46" dy="1.2em" class="st9">is implemented within </tspan>“Cookie <tspan x="58.23" dy="1.2em"
						class="st9">Validation</tspan>”</text>		</g>
		<g id="shape75-242" v:mID="75" v:groupContext="shape" transform="translate(696.938,-1143)">
			<title>Sheet.75</title>
			<desc>This flowchart outlines the main decisions involved in how th...</desc>
			<v:textBlock v:margins="rect(4,4,4,4)"/>
			<v:textRect cx="79.0313" cy="1732.5" width="158.07" height="63"/>
			<rect x="0" y="1701" width="158.063" height="63" class="st15"/>
			<text x="14.12" y="1714.5" class="st16" v:langID="1033"><v:paragraph v:horizAlign="1"/><v:tabList/>This flowchart outlines the <tspan
						x="15.17" dy="1.2em" class="st9">main decisions involved in </tspan><tspan x="5.24" dy="1.2em" class="st9">how this middleware works to </tspan><tspan
						x="45.1" dy="1.2em" class="st9">prevent CSRF.</tspan></text>		</g>
		<g id="shape47-248" v:mID="47" v:groupContext="shape" v:layerMember="2" transform="translate(540,-697.5)">
			<title>Orthogonal</title>
			<desc>Handles Double Submit Cookie Pattern</desc>
			<v:userDefs>
				<v:ud v:nameU="BackFillColor" v:prompt="" v:val="VT5(#96afcf)"/>
				<v:ud v:nameU="BackLineColor" v:prompt="" v:val="VT5(#1f477d)"/>
				<v:ud v:nameU="BackCharColor" v:prompt="" v:val="VT5(#000000)"/>
				<v:ud v:nameU="DarkerColor" v:prompt="" v:val="VT5(#000000)"/>
				<v:ud v:nameU="visVersion" v:prompt="" v:val="VT0(15):26"/>
				<v:ud v:nameU="msvStructureType" v:prompt="" v:val="VT4(Callout)"/>
				<v:ud v:nameU="msvSDTargetIntersection" v:prompt=""/>
				<v:ud v:nameU="msvSDCalloutNoHighlight" v:prompt="" v:val="VT0(0):5"/>
				<v:ud v:nameU="msvShapeCategories" v:prompt="" v:val="VT0(0):26"/>
				<v:ud v:nameU="Side" v:prompt="" v:val="VT0(4):26"/>
				<v:ud v:nameU="LeaderEnd" v:prompt="" v:val="VT7(PNT(0.25,-0.25)):40"/>
				<v:ud v:nameU="WHBoxIntersection" v:prompt="" v:val="VT7(PNT(0.40384615384615,0)):40"/>
				<v:ud v:nameU="IsEndInterior" v:prompt="" v:val="VT0(0):5"/>
				<v:ud v:nameU="Extension" v:prompt="" v:val="VT0(0.0625):0"/>
				<v:ud v:nameU="Inset" v:prompt="" v:val="VT0(0.0625):0"/>
				<v:ud v:nameU="Embellishment" v:prompt="" v:val="VT0(2):26"/>
				<v:ud v:nameU="MultiFormat" v:prompt="" v:val="VT0(0):26"/>
				<v:ud v:nameU="BackFillColor" v:prompt="" v:val="VT5(#ffffff)"/>
				<v:ud v:nameU="BackLineColor" v:prompt="" v:val="VT5(#e9ebf5)"/>
				<v:ud v:nameU="BackCharColor" v:prompt="" v:val="VT5(#4672c4)"/>
				<v:ud v:nameU="DarkerColor" v:prompt="" v:val="VT5(#4672c4)"/>
				<v:ud v:nameU="msvSDTargetIntersection" v:prompt="" v:val="VT7(PNT(1.3839285122801,-0.17857139831295)):40"/>
				<v:ud v:nameU="Side" v:prompt="" v:val="VT0(1):26"/>
				<v:ud v:nameU="LeaderEnd" v:prompt="" v:val="VT7(PNT(1.3839285122801,-0.17857139831295)):40"/>
				<v:ud v:nameU="WHBoxIntersection" v:prompt="" v:val="VT7(PNT(1,0)):40"/>
			</v:userDefs>
			<v:textBlock v:margins="rect(4,4,4,4)"/>
			<v:textRect cx="36" cy="1741.5" width="72" height="44.0037"/>
			<path d="M72 1764 L99.64 1776.86" class="st18"/>
			<path d="M67.5 1719 L72 1719 L72 1764 L67.5 1764" class="st18"/>
			<text x="35.29" y="1732.5" class="st19" v:langID="1033"><v:paragraph v:horizAlign="2"/><v:tabList/>Handles <tspan
						x="7.8" dy="1.2em" class="st9">Double Submit </tspan><tspan x="7.67" dy="1.2em" class="st9">Cookie Pattern</tspan></text>		</g>
	</g>
</svg>
